<svg width="200" height="200" viewBox="0 0 200 200" xmlns="http://www.w3.org/2000/svg">
  <!-- Background -->
  <circle cx="100" cy="100" r="95" fill="#0A192F" stroke="#64FFDA" stroke-width="2"/>
  
  <!-- Server with leaf symbol -->
  <g transform="translate(50, 50)">
    <!-- Server outline -->
    <rect x="0" y="0" width="100" height="80" rx="5" ry="5" fill="#2A3A5A" stroke="#64FFDA" stroke-width="2"/>
    
    <!-- Server details -->
    <rect x="10" y="10" width="80" height="15" rx="2" ry="2" fill="#112240" stroke="#64FFDA" stroke-width="1"/>
    <rect x="10" y="32.5" width="80" height="15" rx="2" ry="2" fill="#112240" stroke="#64FFDA" stroke-width="1"/>
    <rect x="10" y="55" width="80" height="15" rx="2" ry="2" fill="#112240" stroke="#64FFDA" stroke-width="1"/>
    
    <!-- Status lights -->
    <circle cx="15" cy="17.5" r="2" fill="#64FFDA"/>
    <circle cx="15" cy="40" r="2" fill="#64FFDA"/>
    <circle cx="15" cy="62.5" r="2" fill="#64FFDA"/>
  </g>
  
  <!-- Leaf overlay -->
  <path d="M100,40 C140,40 160,60 160,100 C160,140 140,160 100,160 C100,120 80,100 40,100 C80,100 100,80 100,40 Z" 
        fill="#4CAF50" fill-opacity="0.6" stroke="#64FFDA" stroke-width="2"/>
  
  <!-- Energy efficiency symbol -->
  <g transform="translate(85, 90)">
    <path d="M15,0 L30,20 L20,20 L30,40 L0,15 L10,15 L0,0 Z" fill="#FFEB3B" stroke="#64FFDA" stroke-width="1"/>
  </g>
  
  <!-- Circular arrows representing recycling/sustainability -->
  <g fill="none" stroke="#64FFDA" stroke-width="2" stroke-linecap="round">
    <path d="M50,170 A50,50 0 0,1 100,120" stroke-dasharray="5,3"/>
    <polygon points="100,120 90,125 95,115" fill="#64FFDA" stroke="none"/>
    
    <path d="M100,120 A50,50 0 0,1 150,170" stroke-dasharray="5,3"/>
    <polygon points="150,170 145,160 155,165" fill="#64FFDA" stroke="none"/>
    
    <path d="M150,170 A50,50 0 0,1 50,170" stroke-dasharray="5,3"/>
    <polygon points="50,170 60,165 55,175" fill="#64FFDA" stroke="none"/>
  </g>
</svg>